<?xml version="1.0" encoding="utf-8"?>
<!-- Generator: Adobe Illustrator 16.0.0, SVG Export Plug-In . SVG Version: 6.00 Build 0)  -->
<!DOCTYPE svg PUBLIC "-//W3C//DTD SVG 1.1//EN" "http://www.w3.org/Graphics/SVG/1.1/DTD/svg11.dtd">
<svg class="inner-logo" version="1.1" xmlns="http://www.w3.org/2000/svg" xmlns:xlink="http://www.w3.org/1999/xlink" x="0px" y="0px"
	 width="318.791px" height="251.11px" viewBox="0 0 318.791 251.11" enable-background="new 0 0 318.791 251.11"
	 xml:space="preserve">
<g id="Circle_Layer">
	<g>
		<circle fill="#FFFFFF" stroke="#FFFFFF" stroke-miterlimit="10" cx="-4741.895" cy="125.554" r="164.999"/>
		<g>
			<polygon fill="#F2F2F2" stroke="#000000" stroke-miterlimit="10" points="-4734.834,59.288 -4742.023,66.849 -4748.906,59.288
				-4741.867,54.803 			"/>
			<polygon fill="#F2F2F2" stroke="#000000" stroke-miterlimit="10" points="-4733.096,34.051 -4741.947,24.162 -4750.805,34.051
				-4741.947,42.081 			"/>
			<polygon fill="#F2F2F2" stroke="#000000" stroke-miterlimit="10" points="-4735.777,48.398 -4742.021,54.648 -4748.271,48.398
				-4742.021,42.149 			"/>
			<path fill="#F2F2F2" stroke="#000000" stroke-miterlimit="10" d="M-4747.988,48.294l-8.301,6.686c0,0-39.15-27.997-68.955-28.541
				c-3.051-0.057-20.432,4.082-21.604,18.981c-1.111,14.104,12.432,24.691,23.695,24.691c18.666,0,19.002-12.35,19.002-15.374
				c0-2.71-1.453-13.602-22.17-14.187c-5.4-0.153-57.927,1.53-57.927,1.53l-6.04,9.403l5.713-0.293l37.49-0.611
				c0,0,31.846-2.659,32.201,4.4c0.176,3.498-3.52,5.103-7.742,4.928c-4.396-0.185-13.6-5.633-13.9-10.453
				c-1.057-16.911,14.436-29.036,25.338-28.435C-4792.008,22.074-4747.988,48.294-4747.988,48.294z"/>
			<path fill="#F2F2F2" stroke="#000000" stroke-miterlimit="10" d="M-4735.801,48.294l8.299,6.686c0,0,39.152-27.997,68.955-28.541
				c3.051-0.057,20.434,4.082,21.605,18.981c1.109,14.104-12.432,24.691-23.695,24.691c-18.668,0-19.004-12.35-19.004-15.374
				c0-2.71,1.455-13.602,22.17-14.187c5.4-0.153,56.871-0.249,56.871-0.249l7.098,11.182l-5.715-0.293l-37.492-0.611
				c0,0-31.844-2.659-32.199,4.4c-0.176,3.498,3.52,5.103,7.742,4.928c4.396-0.185,13.6-5.633,13.9-10.453
				c1.059-16.911-14.434-29.036-25.338-28.435C-4691.781,22.074-4735.801,48.294-4735.801,48.294z"/>
		</g>
		<g>
			<polygon fill="#F2F2F2" stroke="#000000" stroke-miterlimit="10" points="-4734.834,191.821 -4742.023,184.261
				-4748.906,191.821 -4741.867,196.306 			"/>
			<polygon fill="#F2F2F2" stroke="#000000" stroke-miterlimit="10" points="-4733.096,217.059 -4741.947,226.947
				-4750.805,217.059 -4741.947,209.029 			"/>
			<polygon fill="#F2F2F2" stroke="#000000" stroke-miterlimit="10" points="-4735.777,202.711 -4742.021,196.46 -4748.271,202.711
				-4742.021,208.961 			"/>
			<path fill="#F2F2F2" stroke="#000000" stroke-miterlimit="10" d="M-4747.988,202.815l-8.301-6.686
				c0,0-39.15,27.997-68.955,28.542c-3.051,0.057-20.432-4.082-21.604-18.983c-1.111-14.104,12.432-24.691,23.695-24.691
				c18.666,0,19.002,12.351,19.002,15.375c0,2.709-1.453,13.603-22.17,14.188c-5.4,0.153-56.868,0.249-56.868,0.249l-7.099-11.183
				l5.713,0.293l37.49,0.611c0,0,31.846,2.659,32.201-4.4c0.176-3.498-3.52-5.103-7.742-4.928c-4.396,0.185-13.6,5.633-13.9,10.453
				c-1.057,16.911,14.436,29.036,25.338,28.436C-4792.008,229.035-4747.988,202.815-4747.988,202.815z"/>
			<path fill="#F2F2F2" stroke="#000000" stroke-miterlimit="10" d="M-4735.801,202.815l8.299-6.686
				c0,0,39.152,27.997,68.955,28.542c3.051,0.057,20.434-4.082,21.605-18.983c1.109-14.104-12.432-24.691-23.695-24.691
				c-18.668,0-19.004,12.351-19.004,15.375c0,2.709,1.455,13.603,22.17,14.188c5.4,0.153,56.87,0.249,56.87,0.249l7.099-11.183
				l-5.715,0.293l-37.492,0.611c0,0-31.844,2.659-32.199-4.4c-0.176-3.498,3.52-5.103,7.742-4.928
				c4.396,0.185,13.6,5.633,13.9,10.453c1.059,16.911-14.434,29.036-25.338,28.436
				C-4691.781,229.035-4735.801,202.815-4735.801,202.815z"/>
		</g>
		<text transform="matrix(1 0 0 1 -4857.7383 158.6855)" font-family="'CaviarDreams'" font-size="88">RAVIA</text>
	</g>
</g>
<g id="Transparent_Layer">
	<g>
		<circle fill="none" cx="-821.894" cy="125.554" r="164.999"/>
		<g>
			<polygon fill="none" stroke="#FFFFFF" stroke-miterlimit="10" points="-814.834,59.288 -822.023,66.849 -828.906,59.288
				-821.867,54.803 			"/>
			<polygon fill="none" stroke="#FFFFFF" stroke-miterlimit="10" points="-813.096,34.051 -821.947,24.162 -830.805,34.051
				-821.947,42.081 			"/>
			<polygon fill="none" stroke="#FFFFFF" stroke-miterlimit="10" points="-815.777,48.398 -822.021,54.648 -828.271,48.398
				-822.021,42.149 			"/>
			<path fill="none" stroke="#FFFFFF" stroke-miterlimit="10" d="M-827.988,48.294l-8.301,6.686c0,0-39.15-27.997-68.955-28.541
				c-3.051-0.057-20.432,4.082-21.604,18.981c-1.111,14.104,12.432,24.691,23.695,24.691c18.666,0,19.002-12.35,19.002-15.374
				c0-2.71-1.453-13.602-22.17-14.187c-5.4-0.153-57.927,1.53-57.927,1.53l-6.04,9.403l5.713-0.293l37.49-0.611
				c0,0,31.846-2.659,32.201,4.4c0.176,3.498-3.52,5.103-7.742,4.928c-4.396-0.185-13.6-5.633-13.9-10.453
				c-1.057-16.911,14.436-29.036,25.338-28.435C-872.008,22.074-827.988,48.294-827.988,48.294z"/>
			<path fill="none" stroke="#FFFFFF" stroke-miterlimit="10" d="M-815.801,48.294l8.299,6.686c0,0,39.152-27.997,68.955-28.541
				c3.051-0.057,20.434,4.082,21.605,18.981c1.109,14.104-12.432,24.691-23.695,24.691c-18.668,0-19.004-12.35-19.004-15.374
				c0-2.71,1.455-13.602,22.17-14.187c5.4-0.153,56.871-0.249,56.871-0.249l7.098,11.182l-5.715-0.293l-37.492-0.611
				c0,0-31.844-2.659-32.199,4.4c-0.176,3.498,3.52,5.103,7.742,4.928c4.396-0.185,13.6-5.633,13.9-10.453
				c1.059-16.911-14.434-29.036-25.338-28.435C-771.781,22.074-815.801,48.294-815.801,48.294z"/>
		</g>
		<g>
			<polygon fill="none" stroke="#FFFFFF" stroke-miterlimit="10" points="-814.834,191.821 -822.023,184.261 -828.906,191.821
				-821.867,196.306 			"/>
			<polygon fill="none" stroke="#FFFFFF" stroke-miterlimit="10" points="-813.096,217.059 -821.947,226.947 -830.805,217.059
				-821.947,209.029 			"/>
			<polygon fill="none" stroke="#FFFFFF" stroke-miterlimit="10" points="-815.777,202.711 -822.021,196.46 -828.271,202.711
				-822.021,208.961 			"/>
			<path fill="none" stroke="#FFFFFF" stroke-miterlimit="10" d="M-827.988,202.815l-8.301-6.686c0,0-39.15,27.997-68.955,28.542
				c-3.051,0.057-20.432-4.082-21.604-18.983c-1.111-14.104,12.432-24.691,23.695-24.691c18.666,0,19.002,12.351,19.002,15.375
				c0,2.709-1.453,13.603-22.17,14.188c-5.4,0.153-56.868,0.249-56.868,0.249l-7.099-11.183l5.713,0.293l37.49,0.611
				c0,0,31.846,2.659,32.201-4.4c0.176-3.498-3.52-5.103-7.742-4.928c-4.396,0.185-13.6,5.633-13.9,10.453
				c-1.057,16.911,14.436,29.036,25.338,28.436C-872.008,229.035-827.988,202.815-827.988,202.815z"/>
			<path fill="none" stroke="#FFFFFF" stroke-miterlimit="10" d="M-815.801,202.815l8.299-6.686c0,0,39.152,27.997,68.955,28.542
				c3.051,0.057,20.434-4.082,21.605-18.983c1.109-14.104-12.432-24.691-23.695-24.691c-18.668,0-19.004,12.351-19.004,15.375
				c0,2.709,1.455,13.603,22.17,14.188c5.4,0.153,56.87,0.249,56.87,0.249l7.099-11.183l-5.715,0.293l-37.492,0.611
				c0,0-31.844,2.659-32.199-4.4c-0.176-3.498,3.52-5.103,7.742-4.928c4.396,0.185,13.6,5.633,13.9,10.453
				c1.059,16.911-14.434,29.036-25.338,28.436C-771.781,229.035-815.801,202.815-815.801,202.815z"/>
		</g>
		<text transform="matrix(1 0 0 1 -937.7383 158.6855)" fill="#FFFFFF" font-family="'CaviarDreams'" font-size="88">RAVIA</text>
	</g>
</g>
<g id="White_Circle">
	<g>
		<circle fill="none" cx="-1801.895" cy="125.554" r="164.999"/>
		<g>
			<polygon fill="none" stroke="#000000" stroke-miterlimit="10" points="-1794.834,59.288 -1802.023,66.849 -1808.906,59.288
				-1801.867,54.803 			"/>
			<polygon fill="none" stroke="#000000" stroke-miterlimit="10" points="-1793.096,34.051 -1801.947,24.162 -1810.805,34.051
				-1801.947,42.081 			"/>
			<polygon fill="none" stroke="#000000" stroke-miterlimit="10" points="-1795.777,48.398 -1802.021,54.648 -1808.271,48.398
				-1802.021,42.149 			"/>
			<path fill="none" stroke="#000000" stroke-miterlimit="10" d="M-1807.988,48.294l-8.301,6.686c0,0-39.15-27.997-68.955-28.541
				c-3.051-0.057-20.432,4.082-21.604,18.981c-1.111,14.104,12.432,24.691,23.695,24.691c18.666,0,19.002-12.35,19.002-15.374
				c0-2.71-1.453-13.602-22.17-14.187c-5.4-0.153-57.927,1.53-57.927,1.53l-6.04,9.403l5.713-0.293l37.49-0.611
				c0,0,31.846-2.659,32.201,4.4c0.176,3.498-3.52,5.103-7.742,4.928c-4.396-0.185-13.6-5.633-13.9-10.453
				c-1.057-16.911,14.436-29.036,25.338-28.435C-1852.008,22.074-1807.988,48.294-1807.988,48.294z"/>
			<path fill="none" stroke="#000000" stroke-miterlimit="10" d="M-1795.801,48.294l8.299,6.686c0,0,39.152-27.997,68.955-28.541
				c3.051-0.057,20.434,4.082,21.605,18.981c1.109,14.104-12.432,24.691-23.695,24.691c-18.668,0-19.004-12.35-19.004-15.374
				c0-2.71,1.455-13.602,22.17-14.187c5.4-0.153,56.871-0.249,56.871-0.249l7.098,11.182l-5.715-0.293l-37.492-0.611
				c0,0-31.844-2.659-32.199,4.4c-0.176,3.498,3.52,5.103,7.742,4.928c4.396-0.185,13.6-5.633,13.9-10.453
				c1.059-16.911-14.434-29.036-25.338-28.435C-1751.781,22.074-1795.801,48.294-1795.801,48.294z"/>
		</g>
		<g>
			<polygon fill="none" stroke="#000000" stroke-miterlimit="10" points="-1794.834,191.821 -1802.023,184.261 -1808.906,191.821
				-1801.867,196.306 			"/>
			<polygon fill="none" stroke="#000000" stroke-miterlimit="10" points="-1793.096,217.059 -1801.947,226.947 -1810.805,217.059
				-1801.947,209.029 			"/>
			<polygon fill="none" stroke="#000000" stroke-miterlimit="10" points="-1795.777,202.711 -1802.021,196.46 -1808.271,202.711
				-1802.021,208.961 			"/>
			<path fill="none" stroke="#000000" stroke-miterlimit="10" d="M-1807.988,202.815l-8.301-6.686c0,0-39.15,27.997-68.955,28.542
				c-3.051,0.057-20.432-4.082-21.604-18.983c-1.111-14.104,12.432-24.691,23.695-24.691c18.666,0,19.002,12.351,19.002,15.375
				c0,2.709-1.453,13.603-22.17,14.188c-5.4,0.153-56.868,0.249-56.868,0.249l-7.099-11.183l5.713,0.293l37.49,0.611
				c0,0,31.846,2.659,32.201-4.4c0.176-3.498-3.52-5.103-7.742-4.928c-4.396,0.185-13.6,5.633-13.9,10.453
				c-1.057,16.911,14.436,29.036,25.338,28.436C-1852.008,229.035-1807.988,202.815-1807.988,202.815z"/>
			<path fill="none" stroke="#000000" stroke-miterlimit="10" d="M-1795.801,202.815l8.299-6.686c0,0,39.152,27.997,68.955,28.542
				c3.051,0.057,20.434-4.082,21.605-18.983c1.109-14.104-12.432-24.691-23.695-24.691c-18.668,0-19.004,12.351-19.004,15.375
				c0,2.709,1.455,13.603,22.17,14.188c5.4,0.153,56.87,0.249,56.87,0.249l7.099-11.183l-5.715,0.293l-37.492,0.611
				c0,0-31.844,2.659-32.199-4.4c-0.176-3.498,3.52-5.103,7.742-4.928c4.396,0.185,13.6,5.633,13.9,10.453
				c1.059,16.911-14.434,29.036-25.338,28.436C-1751.781,229.035-1795.801,202.815-1795.801,202.815z"/>
		</g>
		<text transform="matrix(1 0 0 1 -1917.7383 158.6855)" font-family="'CaviarDreams'" font-size="88">RAVIA</text>
	</g>
</g>
<g id="Gatsby_Layer">
	<g>
		<circle stroke="#FFFFFF" stroke-miterlimit="10" cx="-5721.895" cy="125.553" r="164.999"/>
		<g>
			<polygon fill="none" stroke="#F2F2F2" stroke-miterlimit="10" points="-5714.832,59.287 -5722.021,66.848 -5728.904,59.287
				-5721.865,54.802 			"/>
			<polygon fill="none" stroke="#F2F2F2" stroke-miterlimit="10" points="-5713.094,34.05 -5721.946,24.161 -5730.803,34.05
				-5721.946,42.08 			"/>
			<polygon fill="none" stroke="#F2F2F2" stroke-miterlimit="10" points="-5715.775,48.397 -5722.02,54.647 -5728.271,48.397
				-5722.02,42.148 			"/>
			<path fill="none" stroke="#F2F2F2" stroke-miterlimit="10" d="M-5727.987,48.293l-8.3,6.686c0,0-39.15-27.997-68.956-28.541
				c-3.049-0.057-20.432,4.082-21.604,18.981c-1.11,14.104,12.433,24.691,23.695,24.691c18.667,0,19.003-12.35,19.003-15.374
				c0-2.71-1.455-13.602-22.17-14.187c-5.4-0.153-56.871-0.249-56.871-0.249l-7.097,11.182l5.714-0.293l37.49-0.611
				c0,0,31.846-2.659,32.201,4.4c0.177,3.498-3.52,5.103-7.742,4.928c-4.397-0.185-13.599-5.633-13.9-10.453
				c-1.056-16.911,14.436-29.036,25.338-28.435C-5772.007,22.073-5727.987,48.293-5727.987,48.293z"/>
			<path fill="none" stroke="#F2F2F2" stroke-miterlimit="10" d="M-5715.799,48.293l8.299,6.686c0,0,39.152-27.997,68.955-28.541
				c3.051-0.057,20.434,4.082,21.605,18.981c1.109,14.104-12.432,24.691-23.695,24.691c-18.668,0-19.004-12.35-19.004-15.374
				c0-2.71,1.455-13.602,22.17-14.187c5.4-0.153,56.868-0.249,56.868-0.249l7.101,11.182l-5.715-0.293l-37.492-0.611
				c0,0-31.844-2.659-32.199,4.4c-0.176,3.498,3.52,5.103,7.742,4.928c4.396-0.185,13.6-5.633,13.9-10.453
				c1.059-16.911-14.434-29.036-25.338-28.435C-5671.779,22.073-5715.799,48.293-5715.799,48.293z"/>
		</g>
		<g>
			<polygon fill="none" stroke="#F2F2F2" stroke-miterlimit="10" points="-5714.832,191.82 -5722.021,184.26 -5728.904,191.82
				-5721.865,196.305 			"/>
			<polygon fill="none" stroke="#F2F2F2" stroke-miterlimit="10" points="-5713.094,217.058 -5721.946,226.946 -5730.803,217.058
				-5721.946,209.028 			"/>
			<polygon fill="none" stroke="#F2F2F2" stroke-miterlimit="10" points="-5715.775,202.71 -5722.02,196.459 -5728.271,202.71
				-5722.02,208.96 			"/>
			<path fill="none" stroke="#F2F2F2" stroke-miterlimit="10" d="M-5727.987,202.814l-8.3-6.686c0,0-39.15,27.997-68.956,28.542
				c-3.049,0.057-20.432-4.082-21.604-18.983c-1.11-14.104,12.433-24.691,23.695-24.691c18.667,0,19.003,12.351,19.003,15.375
				c0,2.709-1.455,13.603-22.17,14.188c-5.4,0.153-57.931-1.53-57.931-1.53l-6.037-9.403l5.714,0.293l37.49,0.611
				c0,0,31.846,2.659,32.201-4.4c0.177-3.498-3.52-5.103-7.742-4.928c-4.397,0.185-13.599,5.633-13.9,10.453
				c-1.056,16.911,14.436,29.036,25.338,28.436C-5772.007,229.034-5727.987,202.814-5727.987,202.814z"/>
			<path fill="none" stroke="#F2F2F2" stroke-miterlimit="10" d="M-5715.799,202.814l8.299-6.686c0,0,39.152,27.997,68.955,28.542
				c3.051,0.057,20.434-4.082,21.605-18.983c1.109-14.104-12.432-24.691-23.695-24.691c-18.668,0-19.004,12.351-19.004,15.375
				c0,2.709,1.455,13.603,22.17,14.188c5.4,0.153,56.867,0.249,56.867,0.249l7.102-11.183l-5.715,0.293l-37.492,0.611
				c0,0-31.844,2.659-32.199-4.4c-0.176-3.498,3.52-5.103,7.742-4.928c4.396,0.185,13.6,5.633,13.9,10.453
				c1.059,16.911-14.434,29.036-25.338,28.436C-5671.779,229.034-5715.799,202.814-5715.799,202.814z"/>
		</g>

			<text transform="matrix(1 0 0 1 -5837.7383 158.6846)" fill="#FFFFFF" stroke="#000000" stroke-miterlimit="10" font-family="'CaviarDreams'" font-size="88">RAVIA</text>
	</g>
</g>
<g id="White_Rect">
	<g>
		<rect x="-3876.395" y="11.054" fill="#FFFFFF" stroke="#FFFFFF" stroke-miterlimit="10" width="297" height="229"/>
		<g>
			<polygon fill="#F2F2F2" stroke="#000000" stroke-miterlimit="10" points="-3720.834,49.288 -3728.023,56.849 -3734.906,49.288
				-3727.867,44.803 			"/>
			<polygon fill="#F2F2F2" stroke="#000000" stroke-miterlimit="10" points="-3719.096,24.051 -3727.947,14.162 -3736.805,24.051
				-3727.947,32.081 			"/>
			<polygon fill="#F2F2F2" stroke="#000000" stroke-miterlimit="10" points="-3721.777,38.398 -3728.021,44.648 -3734.271,38.398
				-3728.021,32.149 			"/>
			<path fill="#F2F2F2" stroke="#000000" stroke-miterlimit="10" d="M-3733.988,38.294l-8.301,6.686c0,0-39.15-27.997-68.955-28.541
				c-3.051-0.057-20.432,4.082-21.604,18.981c-1.111,14.104,12.432,24.691,23.695,24.691c18.666,0,19.002-12.35,19.002-15.374
				c0-2.71-1.453-13.602-22.17-14.187c-5.4-0.153-63.961-0.264-63.961-0.264l-0.006,11.197l5.713-0.293l37.49-0.611
				c0,0,31.846-2.659,32.201,4.4c0.176,3.498-3.52,5.103-7.742,4.928c-4.396-0.185-13.6-5.633-13.9-10.453
				c-1.057-16.911,14.436-29.036,25.338-28.435C-3778.008,12.074-3733.988,38.294-3733.988,38.294z"/>
			<path fill="#F2F2F2" stroke="#000000" stroke-miterlimit="10" d="M-3721.801,38.294l8.299,6.686c0,0,39.152-27.997,68.955-28.541
				c3.051-0.057,20.434,4.082,21.605,18.981c1.109,14.104-12.432,24.691-23.695,24.691c-18.668,0-19.004-12.35-19.004-15.374
				c0-2.71,1.455-13.602,22.17-14.187c5.4-0.153,63.961-0.264,63.961-0.264l0.008,11.197l-5.715-0.293l-37.492-0.611
				c0,0-31.844-2.659-32.199,4.4c-0.176,3.498,3.52,5.103,7.742,4.928c4.396-0.185,13.6-5.633,13.9-10.453
				c1.059-16.911-14.434-29.036-25.338-28.435C-3677.781,12.074-3721.801,38.294-3721.801,38.294z"/>
		</g>
		<g>
			<polygon fill="#F2F2F2" stroke="#000000" stroke-miterlimit="10" points="-3720.834,201.821 -3728.023,194.261
				-3734.906,201.821 -3727.867,206.306 			"/>
			<polygon fill="#F2F2F2" stroke="#000000" stroke-miterlimit="10" points="-3719.096,227.059 -3727.947,236.947
				-3736.805,227.059 -3727.947,219.029 			"/>
			<polygon fill="#F2F2F2" stroke="#000000" stroke-miterlimit="10" points="-3721.777,212.711 -3728.021,206.46 -3734.271,212.711
				-3728.021,218.961 			"/>
			<path fill="#F2F2F2" stroke="#000000" stroke-miterlimit="10" d="M-3733.988,212.815l-8.301-6.686
				c0,0-39.15,27.997-68.955,28.542c-3.051,0.057-20.432-4.082-21.604-18.983c-1.111-14.104,12.432-24.691,23.695-24.691
				c18.666,0,19.002,12.351,19.002,15.375c0,2.709-1.453,13.603-22.17,14.188c-5.4,0.153-63.961,0.264-63.961,0.264l-0.006-11.197
				l5.713,0.293l37.49,0.611c0,0,31.846,2.659,32.201-4.4c0.176-3.498-3.52-5.103-7.742-4.928c-4.396,0.185-13.6,5.633-13.9,10.453
				c-1.057,16.911,14.436,29.036,25.338,28.436C-3778.008,239.035-3733.988,212.815-3733.988,212.815z"/>
			<path fill="#F2F2F2" stroke="#000000" stroke-miterlimit="10" d="M-3721.801,212.815l8.299-6.686
				c0,0,39.152,27.997,68.955,28.542c3.051,0.057,20.434-4.082,21.605-18.983c1.109-14.104-12.432-24.691-23.695-24.691
				c-18.668,0-19.004,12.351-19.004,15.375c0,2.709,1.455,13.603,22.17,14.188c5.4,0.153,63.961,0.264,63.961,0.264l0.008-11.197
				l-5.715,0.293l-37.492,0.611c0,0-31.844,2.659-32.199-4.4c-0.176-3.498,3.52-5.103,7.742-4.928
				c4.396,0.185,13.6,5.633,13.9,10.453c1.059,16.911-14.434,29.036-25.338,28.436
				C-3677.781,239.035-3721.801,212.815-3721.801,212.815z"/>
		</g>
		<text transform="matrix(1 0 0 1 -3843.7383 158.6855)" font-family="'CaviarDreams'" font-size="88">RAVIA</text>
	</g>
</g>
<g id="Black_Rect">
	<rect x="-2896.395" y="11.054" stroke="#000000" stroke-miterlimit="10" width="297" height="229"/>
	<g>
		<polygon stroke="#F2F2F2" stroke-width="0.5" stroke-miterlimit="10" points="-2740.834,49.288 -2748.023,56.849
			-2754.906,49.288 -2747.867,44.803 		"/>
		<polygon stroke="#F2F2F2" stroke-width="0.5" stroke-miterlimit="10" points="-2739.096,24.051 -2747.947,14.162
			-2756.805,24.051 -2747.947,32.081 		"/>
		<polygon stroke="#F2F2F2" stroke-width="0.5" stroke-miterlimit="10" points="-2741.777,38.398 -2748.021,44.648
			-2754.271,38.398 -2748.021,32.149 		"/>
		<path stroke="#F2F2F2" stroke-width="0.5" stroke-miterlimit="10" d="M-2753.988,38.294l-8.301,6.686
			c0,0-39.15-27.997-68.955-28.541c-3.051-0.057-20.432,4.082-21.604,18.981c-1.111,14.104,12.432,24.691,23.695,24.691
			c18.666,0,19.002-12.35,19.002-15.374c0-2.71-1.453-13.602-22.17-14.187c-5.4-0.153-63.961-0.264-63.961-0.264l-0.006,11.197
			l5.713-0.293l37.49-0.611c0,0,31.846-2.659,32.201,4.4c0.176,3.498-3.52,5.103-7.742,4.928c-4.396-0.185-13.6-5.633-13.9-10.453
			c-1.057-16.911,14.436-29.036,25.338-28.435C-2798.008,12.074-2753.988,38.294-2753.988,38.294z"/>
		<path stroke="#F2F2F2" stroke-width="0.5" stroke-miterlimit="10" d="M-2741.801,38.294l8.299,6.686
			c0,0,39.152-27.997,68.955-28.541c3.051-0.057,20.434,4.082,21.605,18.981c1.109,14.104-12.432,24.691-23.695,24.691
			c-18.668,0-19.004-12.35-19.004-15.374c0-2.71,1.455-13.602,22.17-14.187c5.4-0.153,63.961-0.264,63.961-0.264l0.008,11.197
			l-5.715-0.293l-37.492-0.611c0,0-31.844-2.659-32.199,4.4c-0.176,3.498,3.52,5.103,7.742,4.928
			c4.396-0.185,13.6-5.633,13.9-10.453c1.059-16.911-14.434-29.036-25.338-28.435C-2697.781,12.074-2741.801,38.294-2741.801,38.294
			z"/>
	</g>
	<g>
		<polygon stroke="#F2F2F2" stroke-width="0.5" stroke-miterlimit="10" points="-2740.834,201.821 -2748.023,194.261
			-2754.906,201.821 -2747.867,206.306 		"/>
		<polygon stroke="#F2F2F2" stroke-width="0.5" stroke-miterlimit="10" points="-2739.096,227.059 -2747.947,236.947
			-2756.805,227.059 -2747.947,219.029 		"/>
		<polygon stroke="#F2F2F2" stroke-width="0.5" stroke-miterlimit="10" points="-2741.777,212.711 -2748.021,206.46
			-2754.271,212.711 -2748.021,218.961 		"/>
		<path stroke="#F2F2F2" stroke-width="0.5" stroke-miterlimit="10" d="M-2753.988,212.815l-8.301-6.686
			c0,0-39.15,27.997-68.955,28.542c-3.051,0.057-20.432-4.082-21.604-18.983c-1.111-14.104,12.432-24.691,23.695-24.691
			c18.666,0,19.002,12.351,19.002,15.375c0,2.709-1.453,13.603-22.17,14.188c-5.4,0.153-63.961,0.264-63.961,0.264l-0.006-11.197
			l5.713,0.293l37.49,0.611c0,0,31.846,2.659,32.201-4.4c0.176-3.498-3.52-5.103-7.742-4.928c-4.396,0.185-13.6,5.633-13.9,10.453
			c-1.057,16.911,14.436,29.036,25.338,28.436C-2798.008,239.035-2753.988,212.815-2753.988,212.815z"/>
		<path stroke="#F2F2F2" stroke-width="0.5" stroke-miterlimit="10" d="M-2741.801,212.815l8.299-6.686
			c0,0,39.152,27.997,68.955,28.542c3.051,0.057,20.434-4.082,21.605-18.983c1.109-14.104-12.432-24.691-23.695-24.691
			c-18.668,0-19.004,12.351-19.004,15.375c0,2.709,1.455,13.603,22.17,14.188c5.4,0.153,63.961,0.264,63.961,0.264l0.008-11.197
			l-5.715,0.293l-37.492,0.611c0,0-31.844,2.659-32.199-4.4c-0.176-3.498,3.52-5.103,7.742-4.928
			c4.396,0.185,13.6,5.633,13.9,10.453c1.059,16.911-14.434,29.036-25.338,28.436
			C-2697.781,239.035-2741.801,212.815-2741.801,212.815z"/>
	</g>
	<text transform="matrix(1 0 0 1 -2863.7383 158.6855)" fill="#FFFFFF" font-family="'CaviarDreams'" font-size="88">RAVIA</text>
</g>
<g id="Transparent_rect">
	<rect x="9.105" y="11.554" fill="none" width="297" height="229"/>
	<g>
		<g class="ribbon">
			<polygon fill="none" stroke="#F2F2F2" stroke-width="2" stroke-miterlimit="10" points="166.455,49.288 159.267,56.849
				152.384,49.288 159.423,44.803 			"/>
			<polygon fill="none" stroke="#F2F2F2" stroke-width="2" stroke-miterlimit="10" points="168.194,24.051 159.342,14.162
				150.485,24.051 159.342,32.081 			"/>
			<polygon fill="none" stroke="#F2F2F2" stroke-width="2" stroke-miterlimit="10" points="165.513,38.398 159.269,44.648
				153.019,38.398 159.269,32.149 			"/>
			<path fill="none" stroke="#F2F2F2" stroke-width="2" stroke-miterlimit="10" d="M153.302,38.294l-8.301,6.686
				c0,0-39.15-27.997-68.955-28.541c-3.051-0.057-20.432,4.082-21.604,18.981c-1.11,14.104,12.433,24.691,23.695,24.691
				c18.667,0,19.003-12.35,19.003-15.374c0-2.71-1.453-13.602-22.17-14.187c-5.4-0.153-63.962-0.264-63.962-0.264l-0.005,11.197
				l5.713-0.293l37.49-0.611c0,0,31.846-2.659,32.2,4.4c0.177,3.498-3.519,5.103-7.741,4.928c-4.396-0.185-13.6-5.633-13.9-10.453
				C63.707,22.543,79.2,10.418,90.103,11.019C109.282,12.074,153.302,38.294,153.302,38.294z"/>
			<path fill="none" stroke="#F2F2F2" stroke-width="2" stroke-miterlimit="10" d="M165.489,38.294l8.298,6.686
				c0,0,39.154-27.997,68.955-28.541c3.052-0.057,20.434,4.082,21.606,18.981c1.108,14.104-12.432,24.691-23.695,24.691
				c-18.668,0-19.004-12.35-19.004-15.374c0-2.71,1.456-13.602,22.17-14.187c5.4-0.153,63.961-0.264,63.961-0.264l0.007,11.197
				l-5.714-0.293l-37.492-0.611c0,0-31.844-2.659-32.199,4.4c-0.176,3.498,3.52,5.103,7.741,4.928
				c4.398-0.185,13.601-5.633,13.9-10.453c1.06-16.911-14.433-29.036-25.337-28.435C209.508,12.074,165.489,38.294,165.489,38.294z"
				/>
		</g>
		<g class="ribbon">
			<polygon fill="none" stroke="#F2F2F2" stroke-width="2" stroke-miterlimit="10" points="166.455,201.821 159.267,194.261
				152.384,201.821 159.423,206.306 			"/>
			<polygon fill="none" stroke="#F2F2F2" stroke-width="2" stroke-miterlimit="10" points="168.194,227.059 159.342,236.947
				150.485,227.059 159.342,219.029 			"/>
			<polygon fill="none" stroke="#F2F2F2" stroke-width="2" stroke-miterlimit="10" points="165.513,212.711 159.269,206.46
				153.019,212.711 159.269,218.961 			"/>
			<path fill="none" stroke="#F2F2F2" stroke-width="2" stroke-miterlimit="10" d="M153.302,212.815l-8.301-6.686
				c0,0-39.15,27.997-68.955,28.542c-3.051,0.057-20.432-4.082-21.604-18.983c-1.11-14.104,12.433-24.691,23.695-24.691
				c18.667,0,19.003,12.351,19.003,15.375c0,2.709-1.453,13.603-22.17,14.188c-5.4,0.153-63.962,0.264-63.962,0.264l-0.005-11.197
				l5.713,0.293l37.49,0.611c0,0,31.846,2.659,32.2-4.4c0.177-3.498-3.519-5.103-7.741-4.928c-4.396,0.185-13.6,5.633-13.9,10.453
				c-1.058,16.911,14.436,29.036,25.338,28.436C109.282,239.035,153.302,212.815,153.302,212.815z"/>
			<path fill="none" stroke="#F2F2F2" stroke-width="2" stroke-miterlimit="10" d="M165.489,212.815l8.298-6.686
				c0,0,39.154,27.997,68.955,28.542c3.052,0.057,20.434-4.082,21.606-18.983c1.108-14.104-12.432-24.691-23.695-24.691
				c-18.668,0-19.004,12.351-19.004,15.375c0,2.709,1.456,13.603,22.17,14.188c5.4,0.153,63.961,0.264,63.961,0.264l0.007-11.197
				l-5.714,0.293l-37.492,0.611c0,0-31.844,2.659-32.199-4.4c-0.176-3.498,3.52-5.103,7.741-4.928
				c4.398,0.185,13.601,5.633,13.9,10.453c1.06,16.911-14.433,29.036-25.337,28.436
				C209.508,239.035,165.489,212.815,165.489,212.815z"/>
		</g>
		<g>
			<path fill="#FFFFFF" d="M67.894,133.294c-0.372,0.029-0.759,0.043-1.16,0.043H55.046v23.848h-3.867v-68.75h18.047
				c5.242,0.716,9.696,2.908,13.363,6.574c4.383,4.383,6.574,9.668,6.574,15.855c0,6.216-2.191,11.516-6.574,15.898
				c-3.036,3.037-6.517,5.027-10.441,5.973l15.855,24.449h-4.77L67.894,133.294z M55.046,92.345v37.082h11.688
				c5.099,0,9.46-1.812,13.084-5.436c3.624-3.624,5.436-7.999,5.436-13.127c0-5.127-1.812-9.496-5.436-13.105
				s-7.985-5.414-13.084-5.414H55.046z"/>
			<path fill="#FFFFFF" d="M131.187,130.845h-23.805l-9.582,26.34h-4.125l25.609-70.34l25.566,70.34h-4.082L131.187,130.845z
				 M129.769,126.978l-10.484-28.832L108.8,126.978H129.769z"/>
			<path fill="#FFFFFF" d="M150.866,88.435l21.484,59.039l21.484-59.039h4.125l-25.609,70.34l-25.566-70.34H150.866z"/>
			<path fill="#FFFFFF" d="M211.28,88.435v68.75h-3.867v-68.75H211.28z"/>
			<path fill="#FFFFFF" d="M258.245,130.845H234.44l-9.582,26.34h-4.125l25.609-70.34l25.566,70.34h-4.082L258.245,130.845z
				 M256.827,126.978l-10.484-28.832l-10.484,28.832H256.827z"/>
		</g>
	</g>
</g>
</svg>
